# xmcd
# 
# Track frame offsets:
#     150
#     5097
#     34782
#     54484
#     71261
#     106493
#     138466
#     168166
#     193776
#     216598
#     235417
# 
# Disc length: 3371
# 
# Revision: 2
# Processed by: cddbd v1.5.2PL0 Copyright (c) Steve Scherf et al.
# Submitted via: fre:ac v1.0.31
# 
DISCID=9f0d290b
DTITLE=Joe Bonamassa - Beacon Theatre Live From New York Disc 1
DYEAR=2012
DGENRE=Blues
TTITLE0=72nd St. Subway Blues
TTITLE1=Slow Train
TTITLE2=Cradle Rock
TTITLE3=When The Fire Hits The Sea
TTITLE4=Midnight Blues
TTITLE5=Dust Bowl
TTITLE6=The River
TTITLE7=I'll Take Care Of You  (with Beth Hart)
TTITLE8=Sinner's Prayer  (with Beth Hart)
TTITLE9=You Better Watch Yourself
TTITLE10=Steal Your Heart Away
EXTD=
EXTT0=
EXTT1=
EXTT2=
EXTT3=
EXTT4=
EXTT5=
EXTT6=
EXTT7=
EXTT8=
EXTT9=
EXTT10=
PLAYORDER=
